<svg xmlns="http://www.w3.org/2000/svg" viewBox="0 0 900 260" fill="none">
  <path
    d="M38 228C66 155 86 94 99 44M92 135C138 92 176 63 206 47M93 147C133 143 177 162 225 205M302 113C300 111 300 110 301 110C304 110 307 114 309 122C311 131 311 142 309 154M340 150C373 123 408 105 443 96M446 98C431 115 419 131 410 148C404 159 405 169 412 175C422 184 440 180 466 161M532 168C561 142 590 121 618 106M619 107C609 120 603 133 602 145C601 157 606 164 617 167C629 170 644 165 662 150C677 138 697 122 721 102M723 102C704 118 687 139 671 165C657 189 650 209 649 224M650 224C651 235 658 240 671 240C689 240 714 228 745 205C772 185 801 158 832 124M833 124C850 107 868 96 886 91"
    stroke="#241d18"
    stroke-width="6"
    stroke-linecap="round"
    stroke-linejoin="round"
  />
</svg>
